<svg width="576" height="64" viewBox="0 0 576 64" fill="none" xmlns="http://www.w3.org/2000/svg">
<path d="M288 14V8H288.65C294.983 8.13333 300.417 10.4667 304.95 15L305 15.05C309.667 19.7167 312 25.3667 312 32C312 38.6333 309.65 44.2833 304.95 48.95C300.283 53.65 294.633 56 288 56V50C292.967 50 297.2 48.25 300.7 44.75H300.75V44.7C304.25 41.2 306 36.9667 306 32C306 27.0333 304.25 22.8 300.75 19.3L300.7 19.25C297.2 15.75 292.967 14 288 14Z" fill="white"/>
<path d="M288 14C283.033 14 278.783 15.75 275.25 19.25C271.75 22.7833 270 27.0333 270 32C270 36.9667 271.75 41.2 275.25 44.7L275.3 44.75C278.8 48.25 283.033 50 288 50V56C281.367 56 275.717 53.6667 271.05 49L271 48.95C266.333 44.2833 264 38.6333 264 32C264 25.3667 266.333 19.7 271 15C275.567 10.4667 281.033 8.13333 287.4 8H288V14Z" fill="black" fill-opacity="0.498039"/>
<path d="M352.001 14V8H352.651C358.984 8.13333 364.417 10.4667 368.951 15L369.001 15.05C373.667 19.7167 376.001 25.3667 376.001 32C376.001 38.6333 373.651 44.2833 368.951 48.95C364.284 53.65 358.634 56 352.001 56C345.367 56 339.717 53.6667 335.051 49L339.301 44.75C342.801 48.25 347.034 50 352.001 50C356.967 50 361.201 48.25 364.701 44.75H364.751V44.7C368.251 41.2 370.001 36.9667 370.001 32C370.001 27.0333 368.251 22.8 364.751 19.3L364.701 19.25C361.201 15.75 356.967 14 352.001 14Z" fill="white"/>
<path d="M352 14C347.033 14 342.783 15.75 339.25 19.25C335.75 22.7833 334 27.0333 334 32C334 36.9667 335.75 41.2 339.25 44.7L339.3 44.75L335.05 49L335 48.95C330.333 44.2833 328 38.6333 328 32C328 25.3667 330.333 19.7 335 15C339.567 10.4667 345.033 8.13333 351.4 8H352V14Z" fill="black" fill-opacity="0.498039"/>
<path d="M416 14V8H416.65C422.983 8.13333 428.417 10.4667 432.95 15L433 15.05C437.667 19.7167 440 25.3667 440 32C440 38.6333 437.65 44.2833 432.95 48.95C428.283 53.65 422.633 56 416 56C409.367 56 403.717 53.6667 399.05 49L399 48.95C394.333 44.2833 392 38.6333 392 32H398C398 36.9667 399.75 41.2 403.25 44.7L403.3 44.75C406.8 48.25 411.033 50 416 50C420.967 50 425.2 48.25 428.7 44.75H428.75V44.7C432.25 41.2 434 36.9667 434 32C434 27.0333 432.25 22.8 428.75 19.3L428.7 19.25C425.2 15.75 420.967 14 416 14Z" fill="white"/>
<path d="M416 14C411.033 14 406.783 15.75 403.25 19.25C399.75 22.7833 398 27.0333 398 32H392C392 25.3667 394.333 19.7 399 15C403.567 10.4667 409.033 8.13333 415.4 8H416V14Z" fill="black" fill-opacity="0.498039"/>
<path d="M480 14V8H480.65C486.983 8.13333 492.417 10.4667 496.95 15L497 15.05C501.667 19.7167 504 25.3667 504 32C504 38.6333 501.65 44.2833 496.95 48.95C492.283 53.65 486.633 56 480 56C473.367 56 467.717 53.6667 463.05 49L463 48.95C458.333 44.2833 456 38.6333 456 32C456 25.3667 458.333 19.7 463 15L467.25 19.25C463.75 22.7833 462 27.0333 462 32C462 36.9667 463.75 41.2 467.25 44.7L467.3 44.75C470.8 48.25 475.033 50 480 50C484.967 50 489.2 48.25 492.7 44.75H492.75V44.7C496.25 41.2 498 36.9667 498 32C498 27.0333 496.25 22.8 492.75 19.3L492.7 19.25C489.2 15.75 484.967 14 480 14Z" fill="white"/>
<path d="M480 14C475.033 14 470.783 15.75 467.25 19.25L463 15C467.567 10.4667 473.033 8.13333 479.4 8H480V14Z" fill="black" fill-opacity="0.498039"/>
<path d="M556.75 44.75V44.7C560.25 41.2 562 36.9667 562 32C562 27.0333 560.25 22.8 556.75 19.3L556.7 19.25C553.2 15.75 548.967 14 544 14C539.033 14 534.783 15.75 531.25 19.25C527.75 22.7833 526 27.0333 526 32C526 36.9667 527.75 41.2 531.25 44.7L531.3 44.75C534.8 48.25 539.033 50 544 50C548.967 50 553.2 48.25 556.7 44.75H556.75ZM560.95 48.95C556.283 53.65 550.633 56 544 56C537.367 56 531.717 53.6667 527.05 49L527 48.95C522.333 44.2833 520 38.6333 520 32C520 25.3667 522.333 19.7 527 15C531.567 10.4667 537.033 8.13333 543.4 8H544.65C550.983 8.13333 556.417 10.4667 560.95 15L561 15.05C565.667 19.7167 568 25.3667 568 32C568 38.6333 565.65 44.2833 560.95 48.95Z" fill="white"/>
<path d="M44.75 44.75V44.7C48.25 41.2 50 36.9667 50 32C50 27.0333 48.2333 22.7833 44.7 19.25C41.2 15.75 36.9667 14 32 14C27.0333 14 22.7833 15.75 19.25 19.25C15.75 22.7833 14 27.0333 14 32C14 36.9667 15.75 41.2 19.25 44.7C22.7833 48.2333 27.0333 50 32 50C36.9667 50 41.2 48.25 44.7 44.75H44.75ZM48.95 48.95C44.2833 53.65 38.6333 56 32 56C25.3667 56 19.7 53.65 15 48.95C10.3333 44.2833 8 38.6333 8 32C8 25.3667 10.3333 19.7 15 15C19.7 10.3333 25.3667 8 32 8C38.6333 8 44.2833 10.3333 48.95 15C53.65 19.7 56 25.3667 56 32C56 38.6333 53.65 44.2833 48.95 48.95Z" fill="black" fill-opacity="0.498039"/>
<path d="M113 15.05L108.75 19.3L108.7 19.25C105.2 15.75 100.967 14 96 14V8H96.65C102.983 8.13333 108.417 10.4667 112.95 15L113 15.05Z" fill="white"/>
<path d="M113 15.05C117.667 19.7167 120 25.3667 120 32C120 38.6333 117.65 44.2833 112.95 48.95C108.283 53.65 102.633 56 96 56C89.3667 56 83.7167 53.6667 79.05 49L79 48.95C74.3333 44.2833 72 38.6333 72 32C72 25.3667 74.3333 19.7 79 15C83.5667 10.4667 89.0333 8.13333 95.4 8H96V14C91.0333 14 86.7833 15.75 83.25 19.25C79.75 22.7833 78 27.0333 78 32C78 36.9667 79.75 41.2 83.25 44.7L83.3 44.75C86.8 48.25 91.0333 50 96 50C100.967 50 105.2 48.25 108.7 44.75H108.75V44.7C112.25 41.2 114 36.9667 114 32C114 27.0333 112.25 22.8 108.75 19.3L113 15.05Z" fill="black" fill-opacity="0.498039"/>
<path d="M178 32C178 27.0333 176.25 22.8 172.75 19.3L172.7 19.25C169.2 15.75 164.967 14 160 14V8H160.65C166.983 8.13333 172.417 10.4667 176.95 15L177 15.05C181.667 19.7167 184 25.3667 184 32H178Z" fill="white"/>
<path d="M178 32H184C184 38.6333 181.65 44.2833 176.95 48.95C172.283 53.65 166.633 56 160 56C153.367 56 147.717 53.6667 143.05 49L143 48.95C138.333 44.2833 136 38.6333 136 32C136 25.3667 138.333 19.7 143 15C147.567 10.4667 153.033 8.13333 159.4 8H160V14C155.033 14 150.783 15.75 147.25 19.25C143.75 22.7833 142 27.0333 142 32C142 36.9667 143.75 41.2 147.25 44.7L147.3 44.75C150.8 48.25 155.033 50 160 50C164.967 50 169.2 48.25 172.7 44.75H172.75V44.7C176.25 41.2 178 36.9667 178 32Z" fill="black" fill-opacity="0.498039"/>
<path d="M224 14V8H224.65C230.983 8.13333 236.417 10.4667 240.95 15L241 15.05C245.667 19.7167 248 25.3667 248 32C248 38.6333 245.65 44.2833 240.95 48.95L236.75 44.75V44.7C240.25 41.2 242 36.9667 242 32C242 27.0333 240.25 22.8 236.75 19.3L236.7 19.25C233.2 15.75 228.967 14 224 14Z" fill="white"/>
<path d="M224 14C219.033 14 214.783 15.75 211.25 19.25C207.75 22.7833 206 27.0333 206 32C206 36.9667 207.75 41.2 211.25 44.7L211.3 44.75C214.8 48.25 219.033 50 224 50C228.967 50 233.2 48.25 236.7 44.75H236.75L240.95 48.95C236.283 53.65 230.633 56 224 56C217.367 56 211.717 53.6667 207.05 49L207 48.95C202.333 44.2833 200 38.6333 200 32C200 25.3667 202.333 19.7 207 15C211.567 10.4667 217.033 8.13333 223.4 8H224V14Z" fill="black" fill-opacity="0.498039"/>
</svg>
